<?xml version='1.0' encoding='iso-8859-1'?>
<svg version="1.1" xmlns="http://www.w3.org/2000/svg" viewBox="0 0 229 229" xmlns:xlink="http://www.w3.org/1999/xlink" enable-background="new 0 0 229 229">
  <g>
    <path d="m223.665,79.878c-0.41-1.295-1.33-2.366-2.547-2.97-1.215-0.602-2.626-0.686-3.904-0.228-2.843,1.017-5.822,1.533-8.857,1.533-14.494,0-26.286-11.791-26.286-26.285 0-2.762-2.238-5-5-5-14.494,0-26.285-11.792-26.285-26.286 0-3.034 0.516-6.014 1.533-8.856 0.457-1.278 0.375-2.688-0.227-3.904-0.604-1.217-1.675-2.137-2.97-2.547-11.169-3.54-22.817-5.335-34.622-5.335-63.136,0-114.5,51.364-114.5,114.5s51.364,114.5 114.5,114.5 114.5-51.364 114.5-114.5c0-11.805-1.795-23.453-5.335-34.622zm-109.165,1.351c18.346,0 33.271,14.926 33.271,33.271s-14.926,33.271-33.271,33.271-33.271-14.925-33.271-33.271 14.925-33.271 33.271-33.271zm-20.989-56.553l11.313,11.313-23.335,23.335-11.313-11.313 23.335-23.335zm21,145l11.313,11.314-23.335,23.335-11.313-11.314 23.335-23.335zm81.656-55.176v33h-16v-33h16zm-136.343,12.511l-11.313,11.314-23.335-23.335 11.313-11.314 23.335,23.335z"/>
  </g>
</svg>
