<?xml version="1.0" encoding="iso-8859-1"?>
<!-- Generator: Adobe Illustrator 19.0.0, SVG Export Plug-In . SVG Version: 6.00 Build 0)  -->
<svg version="1.1" id="Layer_1" xmlns="http://www.w3.org/2000/svg" xmlns:xlink="http://www.w3.org/1999/xlink" x="0px" y="0px"
	 viewBox="0 0 512 512" style="enable-background:new 0 0 512 512;" xml:space="preserve">
<path style="fill:#6E3D3D;" d="M437.02,74.98C388.667,26.629,324.38,0,256,0S123.333,26.629,74.98,74.98
	C26.629,123.333,0,187.62,0,256s26.629,132.667,74.98,181.02C123.333,485.371,187.62,512,256,512s132.667-26.629,181.02-74.98
	C485.371,388.667,512,324.38,512,256S485.371,123.333,437.02,74.98z M256,351.616c-52.723,0-95.616-42.894-95.616-95.616
	c0-52.723,42.893-95.616,95.616-95.616s95.616,42.893,95.616,95.616S308.723,351.616,256,351.616z"/>
<path style="fill:#9E6451;" d="M256,351.616c-52.723,0-95.616-42.894-95.616-95.616c0-52.723,42.893-95.616,95.616-95.616V0
	C187.62,0,123.333,26.629,74.98,74.98C26.629,123.333,0,187.62,0,256s26.629,132.667,74.98,181.02
	C123.333,485.371,187.62,512,256,512V351.616z"/>
<path style="fill:#FF426D;" d="M437.02,74.98C388.667,26.629,324.38,0,256,0S123.333,26.629,74.98,74.98
	C26.629,123.333,0,187.62,0,256c0,5.797,0.207,11.561,0.587,17.292c1.757,0.663,3.339,1.893,4.44,3.696l0,0
	c15.004,24.562,50.676,24.562,65.68,0l0,0c3.485-5.704,11.769-5.704,15.254,0l0,0c15.004,24.562,50.676,24.562,65.68,0l0,0
	c2.274-3.723,6.588-5,10.282-3.863c-1.009-5.557-1.538-11.28-1.538-17.124c0-52.723,42.893-95.616,95.616-95.616
	s95.616,42.893,95.616,95.616c0,5.844-0.529,11.567-1.538,17.124c3.694-1.136,8.008,0.141,10.282,3.863l0,0
	c15.004,24.562,50.676,24.562,65.68,0l0,0c3.485-5.704,11.769-5.704,15.254,0l0,0c15.004,24.562,50.676,24.562,65.68,0l0,0
	c1.101-1.803,2.683-3.032,4.44-3.696C511.793,267.561,512,261.797,512,256C512,187.62,485.371,123.333,437.02,74.98z"/>
<path style="fill:#FF73B0;" d="M256,0C187.62,0,123.333,26.629,74.98,74.98C26.629,123.333,0,187.62,0,256
	c0,5.797,0.207,11.561,0.587,17.292c1.757,0.663,3.339,1.893,4.44,3.696c15.004,24.562,50.676,24.562,65.68,0l0,0
	c3.485-5.704,11.769-5.704,15.254,0c15.004,24.562,50.676,24.562,65.68,0c2.274-3.723,6.588-5,10.282-3.863
	c-1.009-5.557-1.538-11.28-1.538-17.124c0-52.723,42.893-95.616,95.616-95.616L256,0L256,0z"/>
<path style="fill:#C9EAF0;" d="M286.579,95.814c-6.423-5.232-15.871-4.269-21.104,2.155l-22.548,27.678
	c-5.232,6.423-4.268,15.871,2.155,21.104c2.784,2.268,6.134,3.371,9.465,3.371c4.354,0,8.673-1.887,11.638-5.526l22.548-27.678
	C293.966,110.495,293.001,101.047,286.579,95.814z"/>
<g>
	<path style="fill:#FFFFFF;" d="M256,109.6l-13.074,16.048c-5.232,6.423-4.268,15.871,2.155,21.104
		c2.784,2.268,6.134,3.371,9.465,3.371c0.485,0,0.97-0.023,1.453-0.07L256,109.6z"/>
	<path style="fill:#FFFFFF;" d="M125.21,105.33c-8.301-0.116-15.099,6.492-15.222,14.775l-0.52,34.87
		c-0.123,8.284,6.492,15.099,14.775,15.222c0.077,0.001,0.152,0.001,0.228,0.001c8.18,0,14.872-6.569,14.994-14.776l0.52-34.87
		C140.108,112.269,133.494,105.454,125.21,105.33z"/>
</g>
<g>
	<path style="fill:#C9EAF0;" d="M397.77,154.232l-34.87-0.52c-8.317-0.127-15.099,6.491-15.222,14.775
		c-0.123,8.284,6.492,15.099,14.775,15.222l34.87,0.52c0.077,0.001,0.152,0.001,0.228,0.001c8.18,0,14.872-6.569,14.994-14.776
		C412.668,161.17,406.053,154.355,397.77,154.232z"/>
	<path style="fill:#C9EAF0;" d="M365.338,113.275c3.764,0,7.532-1.408,10.446-4.236c5.945-5.77,6.086-15.267,0.316-21.211
		l-24.289-25.024c-5.77-5.944-15.267-6.087-21.211-0.316c-5.945,5.77-6.086,15.267-0.316,21.211l24.289,25.024
		C357.514,111.753,361.424,113.275,365.338,113.275z"/>
</g>
<path style="fill:#FFFFFF;" d="M90.385,185.25c-5.77-5.943-15.266-6.087-21.211-0.316c-5.945,5.77-6.086,15.267-0.316,21.211
	l24.289,25.024c2.941,3.03,6.851,4.553,10.765,4.553c3.764,0,7.532-1.408,10.446-4.236c5.945-5.77,6.086-15.267,0.316-21.211
	L90.385,185.25z"/>
<path style="fill:#C9EAF0;" d="M479.127,199.234c-5.77-5.944-15.267-6.086-21.211-0.316l-25.023,24.289
	c-5.945,5.77-6.086,15.267-0.316,21.211c2.941,3.03,6.851,4.553,10.765,4.553c3.764,0,7.532-1.408,10.446-4.236l25.023-24.289
	C484.755,214.675,484.896,205.179,479.127,199.234z"/>
<path style="fill:#FFFFFF;" d="M195.693,56.657c-5.945-5.77-15.441-5.627-21.211,0.316c-5.77,5.944-5.628,15.441,0.316,21.211
	l25.024,24.289c2.914,2.829,6.682,4.236,10.446,4.236c3.914,0,7.824-1.522,10.765-4.553c5.77-5.944,5.628-15.441-0.316-21.211
	L195.693,56.657z"/>
<g>
</g>
<g>
</g>
<g>
</g>
<g>
</g>
<g>
</g>
<g>
</g>
<g>
</g>
<g>
</g>
<g>
</g>
<g>
</g>
<g>
</g>
<g>
</g>
<g>
</g>
<g>
</g>
<g>
</g>
</svg>
