<?xml version="1.0" encoding="iso-8859-1"?>
<!-- Generator: Adobe Illustrator 19.0.0, SVG Export Plug-In . SVG Version: 6.00 Build 0)  -->
<svg version="1.1" id="Layer_1" xmlns="http://www.w3.org/2000/svg" xmlns:xlink="http://www.w3.org/1999/xlink" x="0px" y="0px"
	 viewBox="0 0 512 512" style="enable-background:new 0 0 512 512;" xml:space="preserve">
<g>
	<g>
		<path d="M256,0C114.841,0,0,114.841,0,256s114.841,256,256,256s256-114.841,256-256S397.159,0,256,0z M125.542,338.189
			c-9.277,6.108-21.755,3.539-27.865-5.743l-17.215-26.154c-6.109-9.281-3.538-21.757,5.743-27.865
			c9.283-6.111,21.759-3.537,27.865,5.743l17.216,26.154C137.395,319.605,134.823,332.081,125.542,338.189z M150.022,202.355
			c-9.359,0-17.742-6.565-19.689-16.091l-12.071-59.014c-2.226-10.885,4.794-21.515,15.679-23.741
			c10.891-2.232,21.516,4.792,23.742,15.677l12.071,59.014C172.302,190.658,162.785,202.355,150.022,202.355z M276.808,412.239
			l-43.057,22.578c-9.835,5.158-21.997,1.369-27.16-8.474c-5.161-9.841-1.365-22,8.474-27.16l43.057-22.578
			c9.836-5.161,21.999-1.367,27.16,8.474S286.648,407.08,276.808,412.239z M256,319.037c-34.814,0-63.037-28.223-63.037-63.037
			c0-34.815,28.223-63.037,63.037-63.037c34.814,0,63.037,28.222,63.037,63.037C319.037,290.814,290.814,319.037,256,319.037z
			 M322.095,116.41l-22.801,21.46c-8.09,7.613-20.82,7.232-28.438-0.862c-7.615-8.09-7.231-20.822,0.862-28.438l22.801-21.46
			c8.09-7.615,20.821-7.232,28.438,0.862C330.573,96.062,330.188,108.794,322.095,116.41z M398.992,353.359l-22.801,21.459
			c-8.09,7.613-20.82,7.232-28.438-0.861c-7.615-8.09-7.231-20.822,0.862-28.438l22.801-21.459
			c8.09-7.615,20.821-7.232,28.438,0.862C407.469,333.012,407.084,345.744,398.992,353.359z M407.836,230.054
			c-10.118,4.6-22.044,0.122-26.639-9.989l-20.118-44.26c-4.599-10.115-0.126-22.043,9.989-26.639
			c10.111-4.599,22.043-0.126,26.639,9.989l20.118,44.26C422.424,213.53,417.951,225.458,407.836,230.054z"/>
	</g>
</g>
<g>
</g>
<g>
</g>
<g>
</g>
<g>
</g>
<g>
</g>
<g>
</g>
<g>
</g>
<g>
</g>
<g>
</g>
<g>
</g>
<g>
</g>
<g>
</g>
<g>
</g>
<g>
</g>
<g>
</g>
</svg>
